%
M48
M72
T01C0.0197
T02C0.0236
T03C0.0360
T04C0.0630
%
T01
X3133Y6497
X14944Y7776
X18684Y6576
X27345Y14961
T02
X9038Y4922
X7267Y6300
X9038Y7087
X7267Y8465
X8940Y9253
X7267Y10631
X9038Y11418
X11991Y10631
X13566Y11418
X14944Y11418
X17503Y11418
X20160Y11713
X20160Y9942
X17503Y8367
X16912Y8367
X15534Y8367
X14944Y8367
X13467Y9253
X11991Y8465
X14944Y7186
X14944Y6595
X14944Y5906
X14944Y5217
X15534Y5217
X16597Y5217
X17208Y5217
X18093Y5217
X18684Y5217
X20160Y6300
X21341Y6398
X23605Y6398
X24786Y6398
X24786Y8170
X23605Y8170
X21341Y8170
X20160Y8170
X18684Y7875
X18684Y7284
X23605Y9942
X24786Y9942
X24786Y11713
X23605Y11713
X11991Y6300
X13566Y4922
X8349Y13288
T03
X9853Y14461
X10853Y14461
X11853Y14461
X12853Y14461
X13853Y14461
X14853Y14461
X15853Y14461
X16853Y14461
X17853Y14461
X18853Y14461
X18853Y15461
X17853Y15461
X16853Y15461
X15853Y15461
X14853Y15461
X13853Y15461
X12853Y15461
X11853Y15461
X10853Y15461
X9853Y15461
T04
X1755Y12206
X1755Y8269
M30
