G75*
%MOIN*%
%OFA0B0*%
%FSLAX24Y24*%
%IPPOS*%
%LPD*%
%AMOC8*
5,1,8,0,0,1.08239X$1,22.5*
%
%ADD10OC8,0.1720*%
%ADD11C,0.0640*%
%ADD12OC8,0.0640*%
%ADD13OC8,0.0476*%
%ADD14C,0.0437*%
D10*
X001755Y008269D03*
X001755Y012206D03*
D11*
X009853Y014461D03*
D12*
X010853Y014461D03*
X011853Y014461D03*
X012853Y014461D03*
X013853Y014461D03*
X014853Y014461D03*
X015853Y014461D03*
X016853Y014461D03*
X017853Y014461D03*
X018853Y014461D03*
X018853Y015461D03*
X017853Y015461D03*
X016853Y015461D03*
X015853Y015461D03*
X014853Y015461D03*
X013853Y015461D03*
X012853Y015461D03*
X011853Y015461D03*
X010853Y015461D03*
X009853Y015461D03*
D13*
X009038Y004922D03*
X007267Y006300D03*
X009038Y007087D03*
X007267Y008465D03*
X008940Y009253D03*
X007267Y010631D03*
X009038Y011418D03*
X011991Y010631D03*
X013566Y011418D03*
X014944Y011418D03*
X017503Y011418D03*
X020160Y011713D03*
X020160Y009942D03*
X017503Y008367D03*
X016912Y008367D03*
X015534Y008367D03*
X014944Y008367D03*
X013467Y009253D03*
X011991Y008465D03*
X014944Y007186D03*
X014944Y006595D03*
X014944Y005906D03*
X014944Y005217D03*
X015534Y005217D03*
X016597Y005217D03*
X017208Y005217D03*
X018093Y005217D03*
X018684Y005217D03*
X020160Y006300D03*
X021341Y006398D03*
X023605Y006398D03*
X024786Y006398D03*
X024786Y008170D03*
X023605Y008170D03*
X021341Y008170D03*
X020160Y008170D03*
X018684Y007875D03*
X018684Y007284D03*
X023605Y009942D03*
X024786Y009942D03*
X024786Y011713D03*
X023605Y011713D03*
X011991Y006300D03*
X013566Y004922D03*
X008349Y013288D03*
D14*
X014944Y007776D03*
X018684Y006576D03*
X027345Y014961D03*
X003133Y006497D03*
M02*
