G75*
%MOIN*%
%OFA0B0*%
%FSLAX24Y24*%
%IPPOS*%
%LPD*%
%AMOC8*
5,1,8,0,0,1.08239X$1,22.5*
%
%ADD10C,0.0160*%
%ADD11C,0.0030*%
%ADD12C,0.0040*%
%ADD13C,0.0080*%
%ADD14C,0.0050*%
%ADD15R,0.0207X0.0207*%
%ADD16C,0.0060*%
%ADD17R,0.0200X0.0100*%
%ADD18R,0.0150X0.0050*%
%ADD19R,0.0100X0.0100*%
D10*
X000967Y003938D02*
X000180Y004725D01*
X000180Y006300D01*
X000228Y006302D01*
X000275Y006308D01*
X000321Y006317D01*
X000367Y006330D01*
X000412Y006347D01*
X000455Y006368D01*
X000496Y006391D01*
X000535Y006419D01*
X000572Y006449D01*
X000606Y006482D01*
X000638Y006517D01*
X000666Y006555D01*
X000692Y006595D01*
X000714Y006638D01*
X000733Y006681D01*
X000748Y006727D01*
X000759Y006773D01*
X000767Y006820D01*
X000771Y006867D01*
X000771Y006915D01*
X000767Y006962D01*
X000759Y007009D01*
X000748Y007055D01*
X000733Y007101D01*
X000714Y007144D01*
X000692Y007186D01*
X000666Y007227D01*
X000638Y007265D01*
X000606Y007300D01*
X000572Y007333D01*
X000535Y007363D01*
X000496Y007391D01*
X000455Y007414D01*
X000412Y007435D01*
X000367Y007452D01*
X000321Y007465D01*
X000275Y007474D01*
X000228Y007480D01*
X000180Y007482D01*
X000180Y007481D02*
X000180Y012993D01*
X000180Y012992D02*
X000228Y012994D01*
X000275Y013000D01*
X000321Y013009D01*
X000367Y013022D01*
X000412Y013039D01*
X000455Y013060D01*
X000496Y013083D01*
X000535Y013111D01*
X000572Y013141D01*
X000606Y013174D01*
X000638Y013209D01*
X000666Y013247D01*
X000692Y013287D01*
X000714Y013330D01*
X000733Y013373D01*
X000748Y013419D01*
X000759Y013465D01*
X000767Y013512D01*
X000771Y013559D01*
X000771Y013607D01*
X000767Y013654D01*
X000759Y013701D01*
X000748Y013747D01*
X000733Y013793D01*
X000714Y013836D01*
X000692Y013878D01*
X000666Y013919D01*
X000638Y013957D01*
X000606Y013992D01*
X000572Y014025D01*
X000535Y014055D01*
X000496Y014083D01*
X000455Y014106D01*
X000412Y014127D01*
X000367Y014144D01*
X000321Y014157D01*
X000275Y014166D01*
X000228Y014172D01*
X000180Y014174D01*
X000180Y015749D01*
X000967Y016536D01*
X027739Y016536D01*
X028526Y015749D01*
X028526Y014174D01*
X028478Y014172D01*
X028431Y014166D01*
X028385Y014157D01*
X028339Y014144D01*
X028294Y014127D01*
X028251Y014106D01*
X028210Y014083D01*
X028171Y014055D01*
X028134Y014025D01*
X028100Y013992D01*
X028068Y013957D01*
X028040Y013919D01*
X028014Y013879D01*
X027992Y013836D01*
X027973Y013793D01*
X027958Y013747D01*
X027947Y013701D01*
X027939Y013654D01*
X027935Y013607D01*
X027935Y013559D01*
X027939Y013512D01*
X027947Y013465D01*
X027958Y013419D01*
X027973Y013373D01*
X027992Y013330D01*
X028014Y013287D01*
X028040Y013247D01*
X028068Y013209D01*
X028100Y013174D01*
X028134Y013141D01*
X028171Y013111D01*
X028210Y013083D01*
X028251Y013060D01*
X028294Y013039D01*
X028339Y013022D01*
X028385Y013009D01*
X028431Y013000D01*
X028478Y012994D01*
X028526Y012992D01*
X028526Y012993D02*
X028526Y007481D01*
X028526Y007482D02*
X028478Y007480D01*
X028431Y007474D01*
X028385Y007465D01*
X028339Y007452D01*
X028294Y007435D01*
X028251Y007414D01*
X028210Y007391D01*
X028171Y007363D01*
X028134Y007333D01*
X028100Y007300D01*
X028068Y007265D01*
X028040Y007227D01*
X028014Y007186D01*
X027992Y007144D01*
X027973Y007101D01*
X027958Y007055D01*
X027947Y007009D01*
X027939Y006962D01*
X027935Y006915D01*
X027935Y006867D01*
X027939Y006820D01*
X027947Y006773D01*
X027958Y006727D01*
X027973Y006681D01*
X027992Y006638D01*
X028014Y006595D01*
X028040Y006555D01*
X028068Y006517D01*
X028100Y006482D01*
X028134Y006449D01*
X028171Y006419D01*
X028210Y006391D01*
X028251Y006368D01*
X028294Y006347D01*
X028339Y006330D01*
X028385Y006317D01*
X028431Y006308D01*
X028478Y006302D01*
X028526Y006300D01*
X028526Y004725D01*
X027739Y003938D01*
X000967Y003938D01*
D11*
X027754Y009071D02*
X028118Y009071D01*
X027996Y009192D01*
X028118Y009314D01*
X027754Y009314D01*
X027936Y009433D02*
X027936Y009676D01*
X027936Y009796D02*
X027936Y009978D01*
X027996Y010039D01*
X028057Y010039D01*
X028118Y009978D01*
X028118Y009796D01*
X027754Y009796D01*
X027754Y009978D01*
X027814Y010039D01*
X027875Y010039D01*
X027936Y009978D01*
X027754Y010158D02*
X027754Y010401D01*
X027754Y010280D02*
X028118Y010280D01*
X027875Y010883D02*
X028118Y011005D01*
X027875Y011126D01*
X027875Y011246D02*
X027754Y011367D01*
X028118Y011367D01*
X028118Y011246D02*
X028118Y011489D01*
D12*
X004587Y011107D02*
X004587Y009327D01*
X003087Y009327D02*
X003087Y011107D01*
X001697Y015338D02*
X001557Y015478D01*
X001837Y015478D01*
X001697Y015525D02*
X001697Y015338D01*
X001776Y006765D02*
X001776Y006578D01*
X001636Y006718D01*
X001916Y006718D01*
D13*
X002236Y007098D02*
X002236Y004518D01*
X003636Y004518D01*
X003636Y007098D01*
X002236Y007098D01*
X003444Y010141D02*
X004231Y010141D01*
X003837Y010544D01*
X003444Y010141D01*
X003557Y013278D02*
X002157Y013278D01*
X002157Y015858D01*
X003557Y015858D01*
X003557Y013278D01*
D14*
X020849Y012639D02*
X028133Y012639D01*
X028133Y016221D01*
X020849Y016221D01*
X020849Y012639D01*
X026558Y012639D02*
X026558Y016221D01*
D15*
X017498Y007575D03*
D16*
X019353Y013321D02*
X009353Y013321D01*
X009353Y013591D01*
X008703Y013591D01*
X008703Y014111D01*
X008353Y014111D01*
X008353Y013591D01*
X008703Y013591D01*
X008353Y014111D02*
X008353Y014711D01*
X008353Y015211D01*
X008353Y015811D01*
X008703Y015811D01*
X008703Y016341D01*
X008353Y016341D01*
X008353Y015811D01*
X008353Y015211D02*
X008703Y015211D01*
X008703Y014711D01*
X008353Y014711D01*
X008933Y014602D02*
X009113Y014782D01*
X009113Y014241D01*
X008933Y014241D02*
X009294Y014241D01*
X009683Y014041D02*
X009853Y013711D01*
X009853Y013811D01*
X009853Y013711D02*
X010023Y014041D01*
X009683Y014041D01*
X009353Y013591D02*
X019353Y013591D01*
X020003Y013591D01*
X020343Y013591D01*
X020343Y014111D01*
X020343Y014711D01*
X020343Y015211D01*
X020343Y015811D01*
X020343Y016341D01*
X020003Y016341D01*
X019353Y016341D01*
X009353Y016341D01*
X008703Y016341D01*
X019353Y013591D02*
X019353Y013321D01*
X020003Y013591D02*
X020003Y014111D01*
X020343Y014111D01*
X020343Y014711D02*
X020003Y014711D01*
X020003Y015211D01*
X020343Y015211D01*
X020343Y015811D02*
X020003Y015811D01*
X020003Y016341D01*
D17*
X009853Y013921D03*
D18*
X009778Y013996D03*
X009928Y013996D03*
D19*
X009853Y013841D03*
M02*
